PathFileType	4	(X/Y/Z)	 s09c0301.trc
DataRate	CameraRate	NumFrames	NumMarkers	Units	OrigDataRate	OrigDataStartFrame	OrigNumFrames
200	200	4	50	mm	200	501	2000
Frame#	Time	racr			lacr			c7			jug			rlel			rdr			llel			ldr			s2			lic			ric			lasi			rasi			rpsi			lpsi			rgt			lgt			rth1			rth2			rth3			rth4			rlfc			rmfc			rsh1			rsh2			rsh3			rsh4			rlmal			rmmal			rcal			rtoe			rmt5			lth1			lth2			lth4			lth3			llfc			lmfc			llmal			lmmal			lcal			lmt5			lsh1			lsh2			lsh3			lsh4			ltoe			SBIKE			LBIKE			RBIKE			
		X1	Y1	Z1	X2	Y2	Z2	X3	Y3	Z3	X4	Y4	Z4	X5	Y5	Z5	X6	Y6	Z6	X7	Y7	Z7	X8	Y8	Z8	X9	Y9	Z9	X10	Y10	Z10	X11	Y11	Z11	X12	Y12	Z12	X13	Y13	Z13	X14	Y14	Z14	X15	Y15	Z15	X16	Y16	Z16	X17	Y17	Z17	X18	Y18	Z18	X19	Y19	Z19	X20	Y20	Z20	X21	Y21	Z21	X22	Y22	Z22	X23	Y23	Z23	X24	Y24	Z24	X25	Y25	Z25	X26	Y26	Z26	X27	Y27	Z27	X28	Y28	Z28	X29	Y29	Z29	X30	Y30	Z30	X31	Y31	Z31	X32	Y32	Z32	X33	Y33	Z33	X34	Y34	Z34	X35	Y35	Z35	X36	Y36	Z36	X37	Y37	Z37	X38	Y38	Z38	X39	Y39	Z39	X40	Y40	Z40	X41	Y41	Z41	X42	Y42	Z42	X43	Y43	Z43	X44	Y44	Z44	X45	Y45	Z45	X46	Y46	Z46	X47	Y47	Z47	X48	Y48	Z48	X49	Y49	Z49	X50	Y50	Z50	
501	2.5050	795.666685	1284.561383	-139.283128	684.938825	1235.324415	-484.367567	738.897398	1324.538016	-311.439490	733.028507	1184.371949	-301.843672	658.789702	1096.933964	-3.587182	723.016026	869.042992	-51.222621	495.863346	1020.790722	-433.004894	704.821580	891.243142	-431.825542	302.911253	1175.866546	-90.014959	368.850199	1170.963265	-280.983013	486.005737	1102.857765	-29.613704	392.002574	1102.669544	-284.144956	491.043957	1043.661748	-68.335364	366.051227	1181.692243	-51.343633	316.519224	1219.605431	-140.095639	422.086669	959.751412	15.332762	298.480870	1085.677469	-325.149364	452.665002	832.329294	-16.818430	493.924068	758.394173	-43.482745	485.850181	672.213445	-60.767048	517.820821	769.559438	-68.845128	471.249949	574.497280	-100.224808	437.984930	577.642038	-192.427770	388.677427	510.562604	-65.081502	341.898293	435.993002	-83.681692	266.218792	391.931388	-78.358864	356.354549	425.480312	-120.145829	190.837363	327.054566	-78.167085	194.739926	331.660012	-155.949669	121.445388	370.874719	-110.243557	239.179623	135.933981	-131.191870	188.798486	197.012949	-62.354521	392.692819	985.764479	-358.576852	467.450867	949.765535	-377.614985	497.673225	973.982106	-364.812181	515.583979	876.793278	-399.896682	576.381565	787.905930	-406.618524	608.762587	762.609750	-314.417965	339.156770	506.841117	-399.882421	356.367985	516.566303	-325.876072	258.140886	476.765925	-360.847955	419.433636	424.684023	-435.083789	512.851457	711.431327	-423.631375	472.681127	634.543760	-412.782602	397.288833	588.201814	-406.243356	496.434613	617.506082	-385.809465	515.200279	439.023430	-370.895255	-64.545571	853.228011	-238.977225	20.644241	84.747493	-442.018926	21.176946	84.034192	-43.772107	
502	2.5100	795.952087	1284.354408	-138.766003	685.921383	1233.740900	-484.010436	739.557737	1323.201730	-311.034870	733.769788	1183.282173	-301.266885	658.785345	1096.508171	-3.417366	722.943200	869.050504	-51.077739	495.694374	1020.139724	-432.238949	704.562892	890.950331	-430.982236	303.232450	1174.279757	-90.291436	369.723638	1168.844454	-281.207710	486.210149	1102.007137	-28.993464	393.090620	1100.460927	-283.671178	491.429531	1042.653472	-67.463631	366.219536	1180.395406	-51.399480	316.569266	1218.812537	-139.700039	422.349289	958.530362	16.136095	299.802461	1082.978179	-325.263012	452.765252	831.645265	-16.307811	494.526335	757.807831	-42.089868	486.311629	671.497438	-59.704556	518.521384	769.013002	-67.289450	472.996701	573.516199	-99.131347	439.941992	577.399031	-191.690936	389.459378	511.190119	-64.204803	341.324287	437.726642	-82.920105	264.535307	394.877187	-77.806038	355.273761	426.772177	-119.674376	187.591884	331.871265	-77.928810	192.178643	336.545005	-155.726592	118.326451	376.236416	-110.349624	235.309690	140.766358	-131.075221	185.138417	201.910992	-62.258819	393.868832	982.978989	-358.360141	468.299929	946.589683	-377.344802	495.250695	970.278789	-366.630384	516.165756	873.308549	-399.319248	576.296618	784.031987	-405.790221	608.624306	758.743142	-313.722823	341.624526	500.792805	-400.085072	358.617864	510.486298	-326.016306	260.845446	469.749194	-361.087160	422.749312	419.273829	-435.215137	513.343562	706.729705	-423.007575	474.057425	629.624987	-412.525983	398.482388	582.988562	-406.631009	497.903727	612.844609	-385.493950	518.351348	434.624009	-371.025778	-64.556429	853.213241	-239.010083	20.643319	84.733789	-442.020424	21.168124	84.017787	-43.769831	
503	2.5150	796.310592	1284.174430	-138.208906	687.031324	1232.171905	-483.682068	740.308920	1322.099554	-310.580956	734.568635	1182.251330	-300.655582	658.924027	1096.161807	-3.415039	722.877081	868.966202	-51.026729	495.523963	1019.605815	-431.320501	704.958104	891.324028	-431.419727	303.489165	1172.732664	-90.651654	370.530300	1166.744782	-281.583455	486.376693	1101.070581	-28.423977	394.416214	1098.392329	-283.632809	491.775647	1041.580095	-66.670711	366.359980	1179.146735	-51.518531	317.062360	1216.974916	-140.178390	422.581075	957.234316	16.901917	301.085085	1080.005441	-325.496944	453.023719	830.962791	-15.603848	494.768156	757.203932	-41.032548	486.784003	670.584053	-58.505058	519.017755	768.134720	-66.205034	474.449961	572.841892	-97.803534	441.821281	577.058537	-190.808728	389.417854	512.303029	-64.094854	340.158963	439.402147	-82.341159	262.511964	398.383180	-77.802615	354.331565	428.605436	-118.559841	184.401438	336.663065	-77.693340	189.805546	341.517356	-155.494203	115.307873	381.601729	-110.409459	231.608237	145.713324	-131.073441	181.617049	207.160399	-62.146918	395.001905	979.878656	-358.395033	469.455994	942.960044	-376.943443	496.431583	966.830781	-366.187442	516.841796	869.418368	-398.689981	576.196992	779.881195	-404.942287	608.168234	754.660956	-312.900885	343.860844	494.468796	-400.265409	360.767363	504.337585	-326.085095	263.860162	462.304104	-360.931790	425.810947	413.772131	-435.307070	513.764837	702.245997	-422.508347	475.078414	624.581962	-412.096802	400.674575	576.912652	-406.072097	499.134137	607.297524	-384.277123	521.279225	430.206152	-371.159502	-64.564791	853.209493	-239.147947	20.638934	84.719415	-442.026600	21.156070	84.039920	-43.780676	
504	2.5200	796.709521	1284.050766	-137.691864	688.190761	1230.727902	-483.284739	741.165387	1320.997504	-310.125008	735.362942	1181.343195	-300.062327	659.267935	1095.841286	-3.562610	722.877837	868.919342	-50.962869	494.815086	1019.344977	-429.984849	705.081165	891.317766	-431.061938	303.777048	1171.153477	-91.025246	371.393683	1164.685353	-282.029467	486.460150	1100.346400	-27.979339	395.790166	1096.365568	-283.607732	491.998766	1040.688388	-65.909268	366.458847	1177.904988	-51.660693	317.586741	1215.276439	-140.806491	422.690213	956.097889	17.296817	302.270266	1076.871545	-325.819565	453.440618	830.248329	-14.856950	494.989021	756.419944	-40.143653	487.389370	669.815219	-56.914334	519.519911	767.317535	-65.103676	475.864219	572.161440	-96.321827	443.581912	576.561690	-189.754985	389.672599	513.497670	-62.924887	339.005477	441.519997	-81.406644	260.714046	401.846253	-77.148652	353.260790	430.042467	-117.458539	181.290829	341.804059	-77.412965	187.490972	346.632210	-155.253909	112.317917	387.323368	-110.373169	228.262120	151.138275	-130.871010	178.277149	212.473685	-62.027133	396.161721	976.469212	-358.674678	470.594111	939.119723	-376.609496	497.922604	962.955851	-365.745081	517.575669	865.239214	-398.139441	575.998446	775.479624	-404.036515	607.455349	750.304770	-312.184426	345.923439	488.129709	-400.341501	362.627526	498.000507	-326.088589	266.233743	455.045205	-361.017269	428.753718	408.104993	-435.393863	513.955292	697.343784	-421.911746	476.001139	619.338865	-411.692267	402.135118	570.952808	-405.782849	500.291157	602.390580	-383.994340	524.035338	425.471957	-371.275028	-64.551653	853.178776	-239.167760	20.633171	84.681343	-442.024307	21.147818	84.026315	-43.806571	
